<svg width="290" height="158" viewBox="0 0 290 158" fill="none" xmlns="http://www.w3.org/2000/svg">
<path opacity="0.5" d="M61.9712 75.78C62.0032 75.676 62.0592 75.6 62.1392 75.552C62.2192 75.496 62.3072 75.468 62.4032 75.468C62.5312 75.468 62.6392 75.508 62.7272 75.588C62.8232 75.66 62.8712 75.76 62.8712 75.888C62.8712 75.944 62.8592 76.008 62.8352 76.08L60.1232 83.724C60.0832 83.836 60.0152 83.924 59.9192 83.988C59.8232 84.044 59.7152 84.072 59.5952 84.072C59.4832 84.072 59.3792 84.044 59.2832 83.988C59.1872 83.924 59.1192 83.836 59.0792 83.724L56.7272 77.076L54.3512 83.724C54.3112 83.836 54.2432 83.924 54.1472 83.988C54.0512 84.044 53.9472 84.072 53.8352 84.072C53.7232 84.072 53.6192 84.044 53.5232 83.988C53.4272 83.924 53.3592 83.836 53.3192 83.724L50.5952 76.08C50.5712 76.016 50.5592 75.956 50.5592 75.9C50.5592 75.772 50.6072 75.668 50.7032 75.588C50.8072 75.508 50.9232 75.468 51.0512 75.468C51.1472 75.468 51.2352 75.496 51.3152 75.552C51.4032 75.6 51.4632 75.676 51.4952 75.78L53.8592 82.596L56.2592 75.852C56.2992 75.732 56.3632 75.644 56.4512 75.588C56.5392 75.524 56.6352 75.492 56.7392 75.492C56.8432 75.492 56.9392 75.524 57.0272 75.588C57.1152 75.652 57.1792 75.744 57.2192 75.864L59.5832 82.62L61.9712 75.78ZM68.0783 82.644C68.1663 82.644 68.2423 82.68 68.3063 82.752C68.3703 82.824 68.4023 82.916 68.4023 83.028C68.4023 83.228 68.2623 83.412 67.9823 83.58C67.6943 83.748 67.3903 83.876 67.0703 83.964C66.7503 84.044 66.4383 84.084 66.1343 84.084C65.2303 84.084 64.5143 83.816 63.9863 83.28C63.4663 82.744 63.2063 82.004 63.2063 81.06C63.2063 80.46 63.3223 79.932 63.5543 79.476C63.7863 79.012 64.1103 78.652 64.5263 78.396C64.9503 78.14 65.4303 78.012 65.9663 78.012C66.7263 78.012 67.3303 78.26 67.7783 78.756C68.2263 79.252 68.4503 79.924 68.4503 80.772C68.4503 80.932 68.4183 81.048 68.3543 81.12C68.2903 81.192 68.1863 81.228 68.0423 81.228H64.1783C64.2503 82.604 64.9023 83.292 66.1343 83.292C66.4463 83.292 66.7143 83.252 66.9383 83.172C67.1623 83.084 67.4023 82.968 67.6583 82.824C67.8663 82.704 68.0063 82.644 68.0783 82.644ZM65.9783 78.768C65.4663 78.768 65.0543 78.928 64.7423 79.248C64.4383 79.568 64.2583 80.02 64.2023 80.604H67.5983C67.5823 80.012 67.4343 79.56 67.1543 79.248C66.8743 78.928 66.4823 78.768 65.9783 78.768ZM69.9869 75.48C70.1869 75.48 70.3469 75.56 70.4669 75.72C70.5949 75.872 70.6589 76.104 70.6589 76.416C70.6589 77.048 70.4549 77.58 70.0469 78.012C69.9669 78.092 69.8789 78.132 69.7829 78.132C69.6949 78.132 69.6189 78.104 69.5549 78.048C69.4909 77.984 69.4589 77.912 69.4589 77.832C69.4589 77.744 69.4909 77.668 69.5549 77.604C69.7629 77.396 69.8949 77.132 69.9509 76.812C69.7749 76.796 69.6269 76.728 69.5069 76.608C69.3949 76.488 69.3389 76.336 69.3389 76.152C69.3389 75.952 69.3989 75.792 69.5189 75.672C69.6469 75.544 69.8029 75.48 69.9869 75.48ZM72.765 84.06C72.621 84.06 72.501 84.02 72.405 83.94C72.317 83.852 72.273 83.732 72.273 83.58V75.96C72.273 75.808 72.317 75.692 72.405 75.612C72.501 75.524 72.621 75.48 72.765 75.48C72.901 75.48 73.013 75.524 73.101 75.612C73.197 75.692 73.245 75.808 73.245 75.96V83.58C73.245 83.732 73.197 83.852 73.101 83.94C73.013 84.02 72.901 84.06 72.765 84.06ZM75.5541 84.06C75.4101 84.06 75.2901 84.02 75.1941 83.94C75.1061 83.852 75.0621 83.732 75.0621 83.58V75.96C75.0621 75.808 75.1061 75.692 75.1941 75.612C75.2901 75.524 75.4101 75.48 75.5541 75.48C75.6901 75.48 75.8021 75.524 75.8901 75.612C75.9861 75.692 76.0341 75.808 76.0341 75.96V83.58C76.0341 83.732 75.9861 83.852 75.8901 83.94C75.8021 84.02 75.6901 84.06 75.5541 84.06ZM83.3569 84.084C82.8129 84.084 82.3289 83.96 81.9049 83.712C81.4889 83.464 81.1649 83.112 80.9329 82.656C80.7089 82.2 80.5969 81.672 80.5969 81.072C80.5969 80.472 80.7129 79.94 80.9449 79.476C81.1849 79.012 81.5169 78.652 81.9409 78.396C82.3649 78.14 82.8529 78.012 83.4049 78.012C83.7089 78.012 84.0089 78.056 84.3049 78.144C84.6089 78.224 84.8729 78.344 85.0969 78.504C85.2409 78.6 85.3409 78.696 85.3969 78.792C85.4609 78.88 85.4929 78.98 85.4929 79.092C85.4929 79.204 85.4609 79.296 85.3969 79.368C85.3409 79.44 85.2649 79.476 85.1689 79.476C85.1129 79.476 85.0529 79.46 84.9889 79.428C84.9249 79.396 84.8689 79.364 84.8209 79.332C84.7809 79.3 84.7529 79.28 84.7369 79.272C84.5289 79.136 84.3289 79.028 84.1369 78.948C83.9529 78.868 83.7249 78.828 83.4529 78.828C82.8689 78.828 82.4129 79.028 82.0849 79.428C81.7649 79.82 81.6049 80.368 81.6049 81.072C81.6049 81.776 81.7649 82.32 82.0849 82.704C82.4129 83.088 82.8689 83.28 83.4529 83.28C83.7249 83.28 83.9569 83.24 84.1489 83.16C84.3489 83.08 84.5489 82.972 84.7489 82.836C84.8369 82.78 84.9209 82.732 85.0009 82.692C85.0809 82.652 85.1489 82.632 85.2049 82.632C85.2929 82.632 85.3649 82.668 85.4209 82.74C85.4849 82.812 85.5169 82.904 85.5169 83.016C85.5169 83.12 85.4889 83.216 85.4329 83.304C85.3769 83.384 85.2729 83.476 85.1209 83.58C84.8969 83.732 84.6249 83.856 84.3049 83.952C83.9929 84.04 83.6769 84.084 83.3569 84.084ZM89.1111 84.084C88.5591 84.084 88.0711 83.96 87.6471 83.712C87.2311 83.464 86.9071 83.112 86.6751 82.656C86.4511 82.192 86.3391 81.656 86.3391 81.048C86.3391 80.44 86.4511 79.908 86.6751 79.452C86.9071 78.988 87.2311 78.632 87.6471 78.384C88.0711 78.136 88.5591 78.012 89.1111 78.012C89.6631 78.012 90.1511 78.136 90.5751 78.384C90.9991 78.632 91.3231 78.988 91.5471 79.452C91.7791 79.908 91.8951 80.44 91.8951 81.048C91.8951 81.656 91.7791 82.192 91.5471 82.656C91.3231 83.112 90.9991 83.464 90.5751 83.712C90.1511 83.96 89.6631 84.084 89.1111 84.084ZM89.1111 83.28C89.6871 83.28 90.1271 83.092 90.4311 82.716C90.7431 82.332 90.8991 81.776 90.8991 81.048C90.8991 80.336 90.7431 79.788 90.4311 79.404C90.1191 79.012 89.6791 78.816 89.1111 78.816C88.5431 78.816 88.1031 79.012 87.7911 79.404C87.4791 79.788 87.3231 80.336 87.3231 81.048C87.3231 81.768 87.4751 82.32 87.7791 82.704C88.0911 83.088 88.5351 83.28 89.1111 83.28ZM96.2834 78.012C97.6834 78.012 98.3834 78.784 98.3834 80.328V83.58C98.3834 83.732 98.3394 83.852 98.2514 83.94C98.1714 84.02 98.0554 84.06 97.9034 84.06C97.7514 84.06 97.6314 84.02 97.5434 83.94C97.4554 83.852 97.4114 83.732 97.4114 83.58V80.388C97.4114 79.844 97.3034 79.448 97.0874 79.2C96.8794 78.952 96.5434 78.828 96.0794 78.828C95.5434 78.828 95.1154 78.992 94.7954 79.32C94.4754 79.648 94.3154 80.092 94.3154 80.652V83.58C94.3154 83.732 94.2714 83.852 94.1834 83.94C94.1034 84.02 93.9874 84.06 93.8354 84.06C93.6834 84.06 93.5634 84.02 93.4754 83.94C93.3874 83.852 93.3434 83.732 93.3434 83.58V78.516C93.3434 78.372 93.3874 78.256 93.4754 78.168C93.5634 78.08 93.6834 78.036 93.8354 78.036C93.9794 78.036 94.0914 78.08 94.1714 78.168C94.2594 78.256 94.3034 78.368 94.3034 78.504V79.116C94.4954 78.756 94.7634 78.484 95.1074 78.3C95.4514 78.108 95.8434 78.012 96.2834 78.012ZM102.132 84.084C101.764 84.084 101.412 84.04 101.076 83.952C100.748 83.864 100.456 83.74 100.2 83.58C100.056 83.484 99.9517 83.396 99.8877 83.316C99.8317 83.228 99.8037 83.124 99.8037 83.004C99.8037 82.9 99.8317 82.816 99.8877 82.752C99.9517 82.68 100.032 82.644 100.128 82.644C100.224 82.644 100.364 82.704 100.548 82.824C100.788 82.968 101.024 83.084 101.256 83.172C101.496 83.252 101.792 83.292 102.144 83.292C102.576 83.292 102.912 83.216 103.152 83.064C103.392 82.912 103.512 82.692 103.512 82.404C103.512 82.228 103.468 82.088 103.38 81.984C103.292 81.872 103.14 81.776 102.924 81.696C102.708 81.608 102.392 81.52 101.976 81.432C101.272 81.28 100.768 81.076 100.464 80.82C100.16 80.564 100.008 80.216 100.008 79.776C100.008 79.432 100.104 79.128 100.296 78.864C100.488 78.6 100.752 78.392 101.088 78.24C101.432 78.088 101.82 78.012 102.252 78.012C102.564 78.012 102.864 78.056 103.152 78.144C103.448 78.224 103.708 78.34 103.932 78.492C104.204 78.684 104.34 78.884 104.34 79.092C104.34 79.196 104.308 79.284 104.244 79.356C104.18 79.428 104.104 79.464 104.016 79.464C103.92 79.464 103.776 79.396 103.584 79.26C103.36 79.116 103.148 79.004 102.948 78.924C102.748 78.844 102.5 78.804 102.204 78.804C101.828 78.804 101.524 78.888 101.292 79.056C101.068 79.224 100.956 79.448 100.956 79.728C100.956 79.904 100.996 80.048 101.076 80.16C101.164 80.264 101.304 80.36 101.496 80.448C101.696 80.528 101.98 80.608 102.348 80.688C102.892 80.808 103.312 80.94 103.608 81.084C103.912 81.228 104.128 81.404 104.256 81.612C104.384 81.82 104.448 82.084 104.448 82.404C104.448 82.908 104.236 83.316 103.812 83.628C103.388 83.932 102.828 84.084 102.132 84.084ZM106.421 84.06C106.277 84.06 106.157 84.02 106.061 83.94C105.973 83.852 105.929 83.732 105.929 83.58V78.516C105.929 78.364 105.973 78.248 106.061 78.168C106.157 78.08 106.277 78.036 106.421 78.036C106.565 78.036 106.681 78.08 106.769 78.168C106.857 78.248 106.901 78.364 106.901 78.516V83.58C106.901 83.74 106.857 83.86 106.769 83.94C106.681 84.02 106.565 84.06 106.421 84.06ZM106.421 76.776C106.229 76.776 106.073 76.72 105.953 76.608C105.833 76.496 105.773 76.348 105.773 76.164C105.773 75.988 105.833 75.844 105.953 75.732C106.073 75.62 106.229 75.564 106.421 75.564C106.613 75.564 106.769 75.62 106.889 75.732C107.009 75.844 107.069 75.988 107.069 76.164C107.069 76.348 107.009 76.496 106.889 76.608C106.769 76.72 106.613 76.776 106.421 76.776ZM113.41 75.48C113.562 75.48 113.682 75.524 113.77 75.612C113.858 75.7 113.902 75.812 113.902 75.948V83.58C113.902 83.724 113.858 83.84 113.77 83.928C113.682 84.016 113.562 84.06 113.41 84.06C113.258 84.06 113.138 84.016 113.05 83.928C112.97 83.84 112.93 83.724 112.93 83.58V82.932C112.754 83.3 112.494 83.584 112.15 83.784C111.814 83.984 111.418 84.084 110.962 84.084C110.45 84.084 109.998 83.956 109.606 83.7C109.214 83.444 108.91 83.088 108.694 82.632C108.478 82.168 108.37 81.632 108.37 81.024C108.37 80.424 108.478 79.896 108.694 79.44C108.91 78.984 109.214 78.632 109.606 78.384C109.998 78.136 110.45 78.012 110.962 78.012C111.418 78.012 111.814 78.112 112.15 78.312C112.494 78.512 112.754 78.796 112.93 79.164V75.948C112.93 75.804 112.97 75.692 113.05 75.612C113.138 75.524 113.258 75.48 113.41 75.48ZM111.154 83.28C111.722 83.28 112.158 83.088 112.462 82.704C112.774 82.312 112.93 81.76 112.93 81.048C112.93 80.336 112.774 79.788 112.462 79.404C112.158 79.02 111.722 78.828 111.154 78.828C110.586 78.828 110.142 79.02 109.822 79.404C109.51 79.788 109.354 80.328 109.354 81.024C109.354 81.736 109.51 82.292 109.822 82.692C110.142 83.084 110.586 83.28 111.154 83.28ZM120.227 82.644C120.315 82.644 120.391 82.68 120.455 82.752C120.519 82.824 120.551 82.916 120.551 83.028C120.551 83.228 120.411 83.412 120.131 83.58C119.843 83.748 119.539 83.876 119.219 83.964C118.899 84.044 118.587 84.084 118.283 84.084C117.379 84.084 116.663 83.816 116.135 83.28C115.615 82.744 115.355 82.004 115.355 81.06C115.355 80.46 115.471 79.932 115.703 79.476C115.935 79.012 116.259 78.652 116.675 78.396C117.099 78.14 117.579 78.012 118.115 78.012C118.875 78.012 119.479 78.26 119.927 78.756C120.375 79.252 120.599 79.924 120.599 80.772C120.599 80.932 120.567 81.048 120.503 81.12C120.439 81.192 120.335 81.228 120.191 81.228H116.327C116.399 82.604 117.051 83.292 118.283 83.292C118.595 83.292 118.863 83.252 119.087 83.172C119.311 83.084 119.551 82.968 119.807 82.824C120.015 82.704 120.155 82.644 120.227 82.644ZM118.127 78.768C117.615 78.768 117.203 78.928 116.891 79.248C116.587 79.568 116.407 80.02 116.351 80.604H119.747C119.731 80.012 119.583 79.56 119.303 79.248C119.023 78.928 118.631 78.768 118.127 78.768ZM124.923 78.036C125.259 78.012 125.427 78.148 125.427 78.444C125.427 78.572 125.391 78.676 125.319 78.756C125.247 78.828 125.123 78.872 124.947 78.888L124.587 78.924C124.051 78.972 123.651 79.164 123.387 79.5C123.131 79.828 123.003 80.216 123.003 80.664V83.58C123.003 83.74 122.959 83.86 122.871 83.94C122.783 84.02 122.667 84.06 122.523 84.06C122.379 84.06 122.259 84.02 122.163 83.94C122.075 83.852 122.031 83.732 122.031 83.58V78.516C122.031 78.364 122.079 78.248 122.175 78.168C122.271 78.08 122.387 78.036 122.523 78.036C122.651 78.036 122.759 78.08 122.847 78.168C122.935 78.248 122.979 78.36 122.979 78.504V79.176C123.147 78.824 123.383 78.556 123.687 78.372C123.999 78.188 124.355 78.08 124.755 78.048L124.923 78.036ZM132.055 83.292C132.335 83.316 132.475 83.444 132.475 83.676C132.475 83.812 132.423 83.916 132.319 83.988C132.223 84.052 132.075 84.076 131.875 84.06L131.551 84.036C130.911 83.988 130.439 83.796 130.135 83.46C129.831 83.124 129.679 82.616 129.679 81.936V78.924H128.875C128.739 78.924 128.631 78.892 128.551 78.828C128.479 78.756 128.443 78.664 128.443 78.552C128.443 78.432 128.479 78.336 128.551 78.264C128.631 78.192 128.739 78.156 128.875 78.156H129.679V76.8C129.679 76.648 129.723 76.532 129.811 76.452C129.899 76.364 130.019 76.32 130.171 76.32C130.315 76.32 130.431 76.364 130.519 76.452C130.607 76.532 130.651 76.648 130.651 76.8V78.156H131.983C132.111 78.156 132.211 78.192 132.283 78.264C132.363 78.336 132.403 78.432 132.403 78.552C132.403 78.664 132.363 78.756 132.283 78.828C132.211 78.892 132.111 78.924 131.983 78.924H130.651V81.984C130.651 82.424 130.739 82.744 130.915 82.944C131.099 83.136 131.371 83.244 131.731 83.268L132.055 83.292ZM136.385 78.012C137.073 78.012 137.593 78.208 137.945 78.6C138.297 78.984 138.473 79.56 138.473 80.328V83.58C138.473 83.732 138.429 83.852 138.341 83.94C138.253 84.02 138.137 84.06 137.993 84.06C137.841 84.06 137.721 84.02 137.633 83.94C137.545 83.852 137.501 83.732 137.501 83.58V80.352C137.501 79.832 137.393 79.448 137.177 79.2C136.969 78.952 136.633 78.828 136.169 78.828C135.633 78.828 135.205 78.992 134.885 79.32C134.565 79.648 134.405 80.092 134.405 80.652V83.58C134.405 83.732 134.361 83.852 134.273 83.94C134.193 84.02 134.077 84.06 133.925 84.06C133.773 84.06 133.653 84.02 133.565 83.94C133.477 83.852 133.433 83.732 133.433 83.58V75.948C133.433 75.812 133.477 75.7 133.565 75.612C133.661 75.524 133.781 75.48 133.925 75.48C134.077 75.48 134.193 75.524 134.273 75.612C134.361 75.692 134.405 75.804 134.405 75.948V79.092C134.597 78.74 134.865 78.472 135.209 78.288C135.553 78.104 135.945 78.012 136.385 78.012ZM140.746 84.06C140.602 84.06 140.482 84.02 140.386 83.94C140.298 83.852 140.254 83.732 140.254 83.58V78.516C140.254 78.364 140.298 78.248 140.386 78.168C140.482 78.08 140.602 78.036 140.746 78.036C140.89 78.036 141.006 78.08 141.094 78.168C141.182 78.248 141.226 78.364 141.226 78.516V83.58C141.226 83.74 141.182 83.86 141.094 83.94C141.006 84.02 140.89 84.06 140.746 84.06ZM140.746 76.776C140.554 76.776 140.398 76.72 140.278 76.608C140.158 76.496 140.098 76.348 140.098 76.164C140.098 75.988 140.158 75.844 140.278 75.732C140.398 75.62 140.554 75.564 140.746 75.564C140.938 75.564 141.094 75.62 141.214 75.732C141.334 75.844 141.394 75.988 141.394 76.164C141.394 76.348 141.334 76.496 141.214 76.608C141.094 76.72 140.938 76.776 140.746 76.776ZM145.011 84.084C144.643 84.084 144.291 84.04 143.955 83.952C143.627 83.864 143.335 83.74 143.079 83.58C142.935 83.484 142.831 83.396 142.767 83.316C142.711 83.228 142.683 83.124 142.683 83.004C142.683 82.9 142.711 82.816 142.767 82.752C142.831 82.68 142.911 82.644 143.007 82.644C143.103 82.644 143.243 82.704 143.427 82.824C143.667 82.968 143.903 83.084 144.135 83.172C144.375 83.252 144.671 83.292 145.023 83.292C145.455 83.292 145.791 83.216 146.031 83.064C146.271 82.912 146.391 82.692 146.391 82.404C146.391 82.228 146.347 82.088 146.259 81.984C146.171 81.872 146.019 81.776 145.803 81.696C145.587 81.608 145.271 81.52 144.855 81.432C144.151 81.28 143.647 81.076 143.343 80.82C143.039 80.564 142.887 80.216 142.887 79.776C142.887 79.432 142.983 79.128 143.175 78.864C143.367 78.6 143.631 78.392 143.967 78.24C144.311 78.088 144.699 78.012 145.131 78.012C145.443 78.012 145.743 78.056 146.031 78.144C146.327 78.224 146.587 78.34 146.811 78.492C147.083 78.684 147.219 78.884 147.219 79.092C147.219 79.196 147.187 79.284 147.123 79.356C147.059 79.428 146.983 79.464 146.895 79.464C146.799 79.464 146.655 79.396 146.463 79.26C146.239 79.116 146.027 79.004 145.827 78.924C145.627 78.844 145.379 78.804 145.083 78.804C144.707 78.804 144.403 78.888 144.171 79.056C143.947 79.224 143.835 79.448 143.835 79.728C143.835 79.904 143.875 80.048 143.955 80.16C144.043 80.264 144.183 80.36 144.375 80.448C144.575 80.528 144.859 80.608 145.227 80.688C145.771 80.808 146.191 80.94 146.487 81.084C146.791 81.228 147.007 81.404 147.135 81.612C147.263 81.82 147.327 82.084 147.327 82.404C147.327 82.908 147.115 83.316 146.691 83.628C146.267 83.932 145.707 84.084 145.011 84.084ZM154.482 76.308C154.058 76.34 153.738 76.476 153.522 76.716C153.306 76.948 153.198 77.3 153.198 77.772V78.156H154.53C154.666 78.156 154.77 78.192 154.842 78.264C154.914 78.336 154.95 78.432 154.95 78.552C154.95 78.672 154.914 78.764 154.842 78.828C154.77 78.892 154.666 78.924 154.53 78.924H153.198V83.58C153.198 83.732 153.15 83.852 153.054 83.94C152.966 84.02 152.854 84.06 152.718 84.06C152.574 84.06 152.454 84.02 152.358 83.94C152.27 83.852 152.226 83.732 152.226 83.58V78.924H151.422C151.286 78.924 151.178 78.892 151.098 78.828C151.026 78.756 150.99 78.664 150.99 78.552C150.99 78.432 151.026 78.336 151.098 78.264C151.178 78.192 151.286 78.156 151.422 78.156H152.226V77.94C152.226 77.22 152.406 76.656 152.766 76.248C153.126 75.832 153.642 75.6 154.314 75.552L154.626 75.528C154.834 75.512 154.982 75.532 155.07 75.588C155.166 75.644 155.214 75.744 155.214 75.888C155.214 76.12 155.074 76.252 154.794 76.284L154.482 76.308ZM158.205 84.084C157.653 84.084 157.165 83.96 156.741 83.712C156.325 83.464 156.001 83.112 155.769 82.656C155.545 82.192 155.433 81.656 155.433 81.048C155.433 80.44 155.545 79.908 155.769 79.452C156.001 78.988 156.325 78.632 156.741 78.384C157.165 78.136 157.653 78.012 158.205 78.012C158.757 78.012 159.245 78.136 159.669 78.384C160.093 78.632 160.417 78.988 160.641 79.452C160.873 79.908 160.989 80.44 160.989 81.048C160.989 81.656 160.873 82.192 160.641 82.656C160.417 83.112 160.093 83.464 159.669 83.712C159.245 83.96 158.757 84.084 158.205 84.084ZM158.205 83.28C158.781 83.28 159.221 83.092 159.525 82.716C159.837 82.332 159.993 81.776 159.993 81.048C159.993 80.336 159.837 79.788 159.525 79.404C159.213 79.012 158.773 78.816 158.205 78.816C157.637 78.816 157.197 79.012 156.885 79.404C156.573 79.788 156.417 80.336 156.417 81.048C156.417 81.768 156.569 82.32 156.873 82.704C157.185 83.088 157.629 83.28 158.205 83.28ZM165.329 78.036C165.665 78.012 165.833 78.148 165.833 78.444C165.833 78.572 165.797 78.676 165.725 78.756C165.653 78.828 165.529 78.872 165.353 78.888L164.993 78.924C164.457 78.972 164.057 79.164 163.793 79.5C163.537 79.828 163.409 80.216 163.409 80.664V83.58C163.409 83.74 163.365 83.86 163.277 83.94C163.189 84.02 163.073 84.06 162.929 84.06C162.785 84.06 162.665 84.02 162.569 83.94C162.481 83.852 162.437 83.732 162.437 83.58V78.516C162.437 78.364 162.485 78.248 162.581 78.168C162.677 78.08 162.793 78.036 162.929 78.036C163.057 78.036 163.165 78.08 163.253 78.168C163.341 78.248 163.385 78.36 163.385 78.504V79.176C163.553 78.824 163.789 78.556 164.093 78.372C164.405 78.188 164.761 78.08 165.161 78.048L165.329 78.036ZM172.341 76.308C171.917 76.34 171.597 76.476 171.381 76.716C171.165 76.948 171.057 77.3 171.057 77.772V78.156H172.389C172.525 78.156 172.629 78.192 172.701 78.264C172.773 78.336 172.809 78.432 172.809 78.552C172.809 78.672 172.773 78.764 172.701 78.828C172.629 78.892 172.525 78.924 172.389 78.924H171.057V83.58C171.057 83.732 171.009 83.852 170.913 83.94C170.825 84.02 170.713 84.06 170.577 84.06C170.433 84.06 170.313 84.02 170.217 83.94C170.129 83.852 170.085 83.732 170.085 83.58V78.924H169.281C169.145 78.924 169.037 78.892 168.957 78.828C168.885 78.756 168.849 78.664 168.849 78.552C168.849 78.432 168.885 78.336 168.957 78.264C169.037 78.192 169.145 78.156 169.281 78.156H170.085V77.94C170.085 77.22 170.265 76.656 170.625 76.248C170.985 75.832 171.501 75.6 172.173 75.552L172.485 75.528C172.693 75.512 172.841 75.532 172.929 75.588C173.025 75.644 173.073 75.744 173.073 75.888C173.073 76.12 172.933 76.252 172.653 76.284L172.341 76.308ZM178.139 78.036C178.291 78.036 178.407 78.08 178.487 78.168C178.575 78.256 178.619 78.372 178.619 78.516V83.592C178.619 83.728 178.575 83.84 178.487 83.928C178.407 84.016 178.291 84.06 178.139 84.06C177.995 84.06 177.879 84.02 177.791 83.94C177.711 83.852 177.671 83.74 177.671 83.604V83.004C177.487 83.356 177.227 83.624 176.891 83.808C176.563 83.992 176.191 84.084 175.775 84.084C175.079 84.084 174.555 83.892 174.203 83.508C173.851 83.116 173.675 82.54 173.675 81.78V78.516C173.675 78.372 173.719 78.256 173.807 78.168C173.895 78.08 174.015 78.036 174.167 78.036C174.319 78.036 174.435 78.08 174.515 78.168C174.603 78.256 174.647 78.372 174.647 78.516V81.756C174.647 82.276 174.751 82.66 174.959 82.908C175.167 83.148 175.495 83.268 175.943 83.268C176.455 83.268 176.867 83.104 177.179 82.776C177.491 82.44 177.647 82 177.647 81.456V78.516C177.647 78.372 177.691 78.256 177.779 78.168C177.867 78.08 177.987 78.036 178.139 78.036ZM183.125 83.292C183.405 83.316 183.545 83.444 183.545 83.676C183.545 83.812 183.493 83.916 183.389 83.988C183.293 84.052 183.145 84.076 182.945 84.06L182.621 84.036C181.981 83.988 181.509 83.796 181.205 83.46C180.901 83.124 180.749 82.616 180.749 81.936V78.924H179.945C179.809 78.924 179.701 78.892 179.621 78.828C179.549 78.756 179.513 78.664 179.513 78.552C179.513 78.432 179.549 78.336 179.621 78.264C179.701 78.192 179.809 78.156 179.945 78.156H180.749V76.8C180.749 76.648 180.793 76.532 180.881 76.452C180.969 76.364 181.089 76.32 181.241 76.32C181.385 76.32 181.501 76.364 181.589 76.452C181.677 76.532 181.721 76.648 181.721 76.8V78.156H183.053C183.181 78.156 183.281 78.192 183.353 78.264C183.433 78.336 183.473 78.432 183.473 78.552C183.473 78.664 183.433 78.756 183.353 78.828C183.281 78.892 183.181 78.924 183.053 78.924H181.721V81.984C181.721 82.424 181.809 82.744 181.985 82.944C182.169 83.136 182.441 83.244 182.801 83.268L183.125 83.292ZM188.944 78.036C189.096 78.036 189.212 78.08 189.292 78.168C189.38 78.256 189.424 78.372 189.424 78.516V83.592C189.424 83.728 189.38 83.84 189.292 83.928C189.212 84.016 189.096 84.06 188.944 84.06C188.8 84.06 188.684 84.02 188.596 83.94C188.516 83.852 188.476 83.74 188.476 83.604V83.004C188.292 83.356 188.032 83.624 187.696 83.808C187.368 83.992 186.996 84.084 186.58 84.084C185.884 84.084 185.36 83.892 185.008 83.508C184.656 83.116 184.48 82.54 184.48 81.78V78.516C184.48 78.372 184.524 78.256 184.612 78.168C184.7 78.08 184.82 78.036 184.972 78.036C185.124 78.036 185.24 78.08 185.32 78.168C185.408 78.256 185.452 78.372 185.452 78.516V81.756C185.452 82.276 185.556 82.66 185.764 82.908C185.972 83.148 186.3 83.268 186.748 83.268C187.26 83.268 187.672 83.104 187.984 82.776C188.296 82.44 188.452 82 188.452 81.456V78.516C188.452 78.372 188.496 78.256 188.584 78.168C188.672 78.08 188.792 78.036 188.944 78.036ZM194.122 78.036C194.458 78.012 194.626 78.148 194.626 78.444C194.626 78.572 194.59 78.676 194.518 78.756C194.446 78.828 194.322 78.872 194.146 78.888L193.786 78.924C193.25 78.972 192.85 79.164 192.586 79.5C192.33 79.828 192.202 80.216 192.202 80.664V83.58C192.202 83.74 192.158 83.86 192.07 83.94C191.982 84.02 191.866 84.06 191.722 84.06C191.578 84.06 191.458 84.02 191.362 83.94C191.274 83.852 191.23 83.732 191.23 83.58V78.516C191.23 78.364 191.278 78.248 191.374 78.168C191.47 78.08 191.586 78.036 191.722 78.036C191.85 78.036 191.958 78.08 192.046 78.168C192.134 78.248 192.178 78.36 192.178 78.504V79.176C192.346 78.824 192.582 78.556 192.886 78.372C193.198 78.188 193.554 78.08 193.954 78.048L194.122 78.036ZM199.867 82.644C199.955 82.644 200.031 82.68 200.095 82.752C200.159 82.824 200.191 82.916 200.191 83.028C200.191 83.228 200.051 83.412 199.771 83.58C199.483 83.748 199.179 83.876 198.859 83.964C198.539 84.044 198.227 84.084 197.923 84.084C197.019 84.084 196.303 83.816 195.775 83.28C195.255 82.744 194.995 82.004 194.995 81.06C194.995 80.46 195.111 79.932 195.343 79.476C195.575 79.012 195.899 78.652 196.315 78.396C196.739 78.14 197.219 78.012 197.755 78.012C198.515 78.012 199.119 78.26 199.567 78.756C200.015 79.252 200.239 79.924 200.239 80.772C200.239 80.932 200.207 81.048 200.143 81.12C200.079 81.192 199.975 81.228 199.831 81.228H195.967C196.039 82.604 196.691 83.292 197.923 83.292C198.235 83.292 198.503 83.252 198.727 83.172C198.951 83.084 199.191 82.968 199.447 82.824C199.655 82.704 199.795 82.644 199.867 82.644ZM197.767 78.768C197.255 78.768 196.843 78.928 196.531 79.248C196.227 79.568 196.047 80.02 195.991 80.604H199.387C199.371 80.012 199.223 79.56 198.943 79.248C198.663 78.928 198.271 78.768 197.767 78.768ZM207.189 84.084C206.637 84.084 206.149 83.96 205.725 83.712C205.309 83.464 204.985 83.112 204.753 82.656C204.529 82.192 204.417 81.656 204.417 81.048C204.417 80.44 204.529 79.908 204.753 79.452C204.985 78.988 205.309 78.632 205.725 78.384C206.149 78.136 206.637 78.012 207.189 78.012C207.741 78.012 208.229 78.136 208.653 78.384C209.077 78.632 209.401 78.988 209.625 79.452C209.857 79.908 209.973 80.44 209.973 81.048C209.973 81.656 209.857 82.192 209.625 82.656C209.401 83.112 209.077 83.464 208.653 83.712C208.229 83.96 207.741 84.084 207.189 84.084ZM207.189 83.28C207.765 83.28 208.205 83.092 208.509 82.716C208.821 82.332 208.977 81.776 208.977 81.048C208.977 80.336 208.821 79.788 208.509 79.404C208.197 79.012 207.757 78.816 207.189 78.816C206.621 78.816 206.181 79.012 205.869 79.404C205.557 79.788 205.401 80.336 205.401 81.048C205.401 81.768 205.553 82.32 205.857 82.704C206.169 83.088 206.613 83.28 207.189 83.28ZM214.313 78.036C214.649 78.012 214.817 78.148 214.817 78.444C214.817 78.572 214.781 78.676 214.709 78.756C214.637 78.828 214.513 78.872 214.337 78.888L213.977 78.924C213.441 78.972 213.041 79.164 212.777 79.5C212.521 79.828 212.393 80.216 212.393 80.664V83.58C212.393 83.74 212.349 83.86 212.261 83.94C212.173 84.02 212.057 84.06 211.913 84.06C211.769 84.06 211.649 84.02 211.553 83.94C211.465 83.852 211.421 83.732 211.421 83.58V78.516C211.421 78.364 211.469 78.248 211.565 78.168C211.661 78.08 211.777 78.036 211.913 78.036C212.041 78.036 212.149 78.08 212.237 78.168C212.325 78.248 212.369 78.36 212.369 78.504V79.176C212.537 78.824 212.773 78.556 213.077 78.372C213.389 78.188 213.745 78.08 214.145 78.048L214.313 78.036ZM220.227 75.48C220.379 75.48 220.499 75.524 220.587 75.612C220.675 75.7 220.719 75.812 220.719 75.948V83.58C220.719 83.724 220.675 83.84 220.587 83.928C220.499 84.016 220.379 84.06 220.227 84.06C220.075 84.06 219.955 84.016 219.867 83.928C219.787 83.84 219.747 83.724 219.747 83.58V82.932C219.571 83.3 219.311 83.584 218.967 83.784C218.631 83.984 218.235 84.084 217.779 84.084C217.267 84.084 216.815 83.956 216.423 83.7C216.031 83.444 215.727 83.088 215.511 82.632C215.295 82.168 215.187 81.632 215.187 81.024C215.187 80.424 215.295 79.896 215.511 79.44C215.727 78.984 216.031 78.632 216.423 78.384C216.815 78.136 217.267 78.012 217.779 78.012C218.235 78.012 218.631 78.112 218.967 78.312C219.311 78.512 219.571 78.796 219.747 79.164V75.948C219.747 75.804 219.787 75.692 219.867 75.612C219.955 75.524 220.075 75.48 220.227 75.48ZM217.971 83.28C218.539 83.28 218.975 83.088 219.279 82.704C219.591 82.312 219.747 81.76 219.747 81.048C219.747 80.336 219.591 79.788 219.279 79.404C218.975 79.02 218.539 78.828 217.971 78.828C217.403 78.828 216.959 79.02 216.639 79.404C216.327 79.788 216.171 80.328 216.171 81.024C216.171 81.736 216.327 82.292 216.639 82.692C216.959 83.084 217.403 83.28 217.971 83.28ZM227.043 82.644C227.131 82.644 227.207 82.68 227.271 82.752C227.335 82.824 227.367 82.916 227.367 83.028C227.367 83.228 227.227 83.412 226.947 83.58C226.659 83.748 226.355 83.876 226.035 83.964C225.715 84.044 225.403 84.084 225.099 84.084C224.195 84.084 223.479 83.816 222.951 83.28C222.431 82.744 222.171 82.004 222.171 81.06C222.171 80.46 222.287 79.932 222.519 79.476C222.751 79.012 223.075 78.652 223.491 78.396C223.915 78.14 224.395 78.012 224.931 78.012C225.691 78.012 226.295 78.26 226.743 78.756C227.191 79.252 227.415 79.924 227.415 80.772C227.415 80.932 227.383 81.048 227.319 81.12C227.255 81.192 227.151 81.228 227.007 81.228H223.143C223.215 82.604 223.867 83.292 225.099 83.292C225.411 83.292 225.679 83.252 225.903 83.172C226.127 83.084 226.367 82.968 226.623 82.824C226.831 82.704 226.971 82.644 227.043 82.644ZM224.943 78.768C224.431 78.768 224.019 78.928 223.707 79.248C223.403 79.568 223.223 80.02 223.167 80.604H226.563C226.547 80.012 226.399 79.56 226.119 79.248C225.839 78.928 225.447 78.768 224.943 78.768ZM231.739 78.036C232.075 78.012 232.243 78.148 232.243 78.444C232.243 78.572 232.207 78.676 232.135 78.756C232.063 78.828 231.939 78.872 231.763 78.888L231.403 78.924C230.867 78.972 230.467 79.164 230.203 79.5C229.947 79.828 229.819 80.216 229.819 80.664V83.58C229.819 83.74 229.775 83.86 229.687 83.94C229.599 84.02 229.483 84.06 229.339 84.06C229.195 84.06 229.075 84.02 228.979 83.94C228.891 83.852 228.847 83.732 228.847 83.58V78.516C228.847 78.364 228.895 78.248 228.991 78.168C229.087 78.08 229.203 78.036 229.339 78.036C229.467 78.036 229.575 78.08 229.663 78.168C229.751 78.248 229.795 78.36 229.795 78.504V79.176C229.963 78.824 230.199 78.556 230.503 78.372C230.815 78.188 231.171 78.08 231.571 78.048L231.739 78.036ZM234.987 84.084C234.619 84.084 234.267 84.04 233.931 83.952C233.603 83.864 233.311 83.74 233.055 83.58C232.911 83.484 232.807 83.396 232.743 83.316C232.687 83.228 232.659 83.124 232.659 83.004C232.659 82.9 232.687 82.816 232.743 82.752C232.807 82.68 232.887 82.644 232.983 82.644C233.079 82.644 233.219 82.704 233.403 82.824C233.643 82.968 233.879 83.084 234.111 83.172C234.351 83.252 234.647 83.292 234.999 83.292C235.431 83.292 235.767 83.216 236.007 83.064C236.247 82.912 236.367 82.692 236.367 82.404C236.367 82.228 236.323 82.088 236.235 81.984C236.147 81.872 235.995 81.776 235.779 81.696C235.563 81.608 235.247 81.52 234.831 81.432C234.127 81.28 233.623 81.076 233.319 80.82C233.015 80.564 232.863 80.216 232.863 79.776C232.863 79.432 232.959 79.128 233.151 78.864C233.343 78.6 233.607 78.392 233.943 78.24C234.287 78.088 234.675 78.012 235.107 78.012C235.419 78.012 235.719 78.056 236.007 78.144C236.303 78.224 236.563 78.34 236.787 78.492C237.059 78.684 237.195 78.884 237.195 79.092C237.195 79.196 237.163 79.284 237.099 79.356C237.035 79.428 236.959 79.464 236.871 79.464C236.775 79.464 236.631 79.396 236.439 79.26C236.215 79.116 236.003 79.004 235.803 78.924C235.603 78.844 235.355 78.804 235.059 78.804C234.683 78.804 234.379 78.888 234.147 79.056C233.923 79.224 233.811 79.448 233.811 79.728C233.811 79.904 233.851 80.048 233.931 80.16C234.019 80.264 234.159 80.36 234.351 80.448C234.551 80.528 234.835 80.608 235.203 80.688C235.747 80.808 236.167 80.94 236.463 81.084C236.767 81.228 236.983 81.404 237.111 81.612C237.239 81.82 237.303 82.084 237.303 82.404C237.303 82.908 237.091 83.316 236.667 83.628C236.243 83.932 235.683 84.084 234.987 84.084Z" fill="white"/>
<path d="M41.7155 66.09C41.3555 66.09 41.0675 65.988 40.8515 65.784C40.6475 65.568 40.5455 65.286 40.5455 64.938V55.218H37.2695C36.5495 55.218 36.1895 54.9 36.1895 54.264C36.1895 53.628 36.5495 53.31 37.2695 53.31H46.1435C46.8635 53.31 47.2235 53.628 47.2235 54.264C47.2235 54.9 46.8635 55.218 46.1435 55.218H42.8675V64.938C42.8675 65.286 42.7595 65.568 42.5435 65.784C42.3395 65.988 42.0635 66.09 41.7155 66.09ZM53.5465 56.982C55.6105 56.982 56.6425 58.188 56.6425 60.6V65.028C56.6425 65.364 56.5405 65.628 56.3365 65.82C56.1445 66.012 55.8745 66.108 55.5265 66.108C55.1785 66.108 54.9025 66.012 54.6985 65.82C54.4945 65.628 54.3925 65.364 54.3925 65.028V60.6C54.3925 59.964 54.2605 59.502 53.9965 59.214C53.7445 58.914 53.3425 58.764 52.7905 58.764C52.1425 58.764 51.6205 58.968 51.2245 59.376C50.8405 59.784 50.6485 60.33 50.6485 61.014V65.028C50.6485 65.364 50.5465 65.628 50.3425 65.82C50.1385 66.012 49.8625 66.108 49.5145 66.108C49.1665 66.108 48.8905 66.012 48.6865 65.82C48.4945 65.628 48.3985 65.364 48.3985 65.028V54.264C48.3985 53.952 48.5005 53.7 48.7045 53.508C48.9205 53.316 49.1965 53.22 49.5325 53.22C49.8685 53.22 50.1385 53.31 50.3425 53.49C50.5465 53.67 50.6485 53.916 50.6485 54.228V58.422C50.9485 57.954 51.3445 57.6 51.8365 57.36C52.3405 57.108 52.9105 56.982 53.5465 56.982ZM62.7438 56.982C63.9678 56.982 64.8738 57.288 65.4618 57.9C66.0618 58.5 66.3618 59.418 66.3618 60.654V65.046C66.3618 65.37 66.2658 65.628 66.0738 65.82C65.8818 66 65.6178 66.09 65.2818 66.09C64.9698 66.09 64.7118 65.994 64.5078 65.802C64.3158 65.61 64.2198 65.358 64.2198 65.046V64.65C64.0158 65.118 63.6918 65.484 63.2478 65.748C62.8158 66.012 62.3118 66.144 61.7358 66.144C61.1478 66.144 60.6138 66.024 60.1338 65.784C59.6538 65.544 59.2758 65.214 58.9998 64.794C58.7238 64.374 58.5858 63.906 58.5858 63.39C58.5858 62.742 58.7478 62.232 59.0718 61.86C59.4078 61.488 59.9478 61.218 60.6918 61.05C61.4358 60.882 62.4618 60.798 63.7698 60.798H64.2198V60.384C64.2198 59.796 64.0938 59.37 63.8418 59.106C63.5898 58.83 63.1818 58.692 62.6178 58.692C62.2698 58.692 61.9158 58.746 61.5558 58.854C61.1958 58.95 60.7698 59.094 60.2778 59.286C59.9658 59.442 59.7378 59.52 59.5938 59.52C59.3778 59.52 59.1978 59.442 59.0538 59.286C58.9218 59.13 58.8558 58.926 58.8558 58.674C58.8558 58.47 58.9038 58.296 58.9998 58.152C59.1078 57.996 59.2818 57.852 59.5218 57.72C59.9418 57.492 60.4398 57.312 61.0158 57.18C61.6038 57.048 62.1798 56.982 62.7438 56.982ZM62.1858 64.524C62.7858 64.524 63.2718 64.326 63.6438 63.93C64.0278 63.522 64.2198 63 64.2198 62.364V61.986H63.8958C63.0918 61.986 62.4678 62.022 62.0238 62.094C61.5798 62.166 61.2618 62.292 61.0698 62.472C60.8778 62.652 60.7818 62.898 60.7818 63.21C60.7818 63.594 60.9138 63.912 61.1778 64.164C61.4538 64.404 61.7898 64.524 62.1858 64.524ZM73.7605 56.982C74.8165 56.982 75.6025 57.282 76.1185 57.882C76.6345 58.482 76.8925 59.388 76.8925 60.6V65.028C76.8925 65.364 76.7905 65.628 76.5865 65.82C76.3945 66.012 76.1245 66.108 75.7765 66.108C75.4285 66.108 75.1525 66.012 74.9485 65.82C74.7445 65.628 74.6425 65.364 74.6425 65.028V60.726C74.6425 60.042 74.5105 59.544 74.2465 59.232C73.9945 58.92 73.5925 58.764 73.0405 58.764C72.3925 58.764 71.8705 58.968 71.4745 59.376C71.0905 59.784 70.8985 60.33 70.8985 61.014V65.028C70.8985 65.364 70.7965 65.628 70.5925 65.82C70.3885 66.012 70.1125 66.108 69.7645 66.108C69.4165 66.108 69.1405 66.012 68.9365 65.82C68.7445 65.628 68.6485 65.364 68.6485 65.028V58.062C68.6485 57.75 68.7505 57.498 68.9545 57.306C69.1585 57.114 69.4345 57.018 69.7825 57.018C70.0945 57.018 70.3465 57.114 70.5385 57.306C70.7425 57.486 70.8445 57.726 70.8445 58.026V58.512C71.1445 58.02 71.5465 57.642 72.0505 57.378C72.5545 57.114 73.1245 56.982 73.7605 56.982ZM87.0078 64.254C87.2478 64.482 87.3678 64.74 87.3678 65.028C87.3678 65.304 87.2658 65.55 87.0618 65.766C86.8698 65.982 86.6418 66.09 86.3778 66.09C86.1138 66.09 85.8678 65.982 85.6398 65.766L81.4278 61.95V65.028C81.4278 65.376 81.3198 65.64 81.1038 65.82C80.8878 66 80.6178 66.09 80.2938 66.09C79.9698 66.09 79.6998 66 79.4838 65.82C79.2798 65.64 79.1778 65.376 79.1778 65.028V54.282C79.1778 53.934 79.2798 53.67 79.4838 53.49C79.6998 53.31 79.9698 53.22 80.2938 53.22C80.6178 53.22 80.8878 53.31 81.1038 53.49C81.3198 53.67 81.4278 53.934 81.4278 54.282V61.05L85.2798 57.36C85.4958 57.144 85.7418 57.036 86.0178 57.036C86.2938 57.036 86.5338 57.138 86.7378 57.342C86.9418 57.546 87.0438 57.786 87.0438 58.062C87.0438 58.338 86.9298 58.59 86.7018 58.818L83.8758 61.446L87.0078 64.254ZM91.8912 66.144C90.5832 66.144 89.5272 65.886 88.7232 65.37C88.3392 65.142 88.1472 64.818 88.1472 64.398C88.1472 64.158 88.2132 63.966 88.3452 63.822C88.4772 63.666 88.6392 63.588 88.8312 63.588C89.0352 63.588 89.3172 63.684 89.6772 63.876C90.0612 64.056 90.4092 64.194 90.7212 64.29C91.0452 64.386 91.4532 64.434 91.9452 64.434C92.4492 64.434 92.8392 64.35 93.1152 64.182C93.4032 64.014 93.5472 63.78 93.5472 63.48C93.5472 63.276 93.4872 63.114 93.3672 62.994C93.2592 62.874 93.0552 62.766 92.7552 62.67C92.4672 62.562 92.0232 62.442 91.4232 62.31C90.3552 62.094 89.5872 61.788 89.1192 61.392C88.6632 60.996 88.4352 60.45 88.4352 59.754C88.4352 59.226 88.5912 58.752 88.9032 58.332C89.2152 57.9 89.6412 57.57 90.1812 57.342C90.7332 57.102 91.3572 56.982 92.0532 56.982C92.5572 56.982 93.0432 57.048 93.5112 57.18C93.9792 57.3 94.3992 57.48 94.7712 57.72C95.1552 57.96 95.3472 58.278 95.3472 58.674C95.3472 58.914 95.2812 59.118 95.1492 59.286C95.0172 59.442 94.8552 59.52 94.6632 59.52C94.5312 59.52 94.3992 59.496 94.2672 59.448C94.1472 59.388 93.9912 59.304 93.7992 59.196C93.4512 59.016 93.1512 58.884 92.8992 58.8C92.6472 58.704 92.3352 58.656 91.9632 58.656C91.5192 58.656 91.1652 58.746 90.9012 58.926C90.6492 59.106 90.5232 59.352 90.5232 59.664C90.5232 59.964 90.6552 60.192 90.9192 60.348C91.1832 60.504 91.6932 60.66 92.4492 60.816C93.2532 60.984 93.8832 61.176 94.3392 61.392C94.7952 61.608 95.1192 61.878 95.3112 62.202C95.5152 62.526 95.6172 62.94 95.6172 63.444C95.6172 64.26 95.2752 64.914 94.5912 65.406C93.9192 65.898 93.0192 66.144 91.8912 66.144ZM106.774 54.984C106.222 55.02 105.82 55.188 105.568 55.488C105.316 55.788 105.19 56.22 105.19 56.784V57.198H106.72C107.392 57.198 107.728 57.48 107.728 58.044C107.728 58.608 107.392 58.89 106.72 58.89H105.19V65.028C105.19 65.376 105.082 65.64 104.866 65.82C104.662 66 104.398 66.09 104.074 66.09C103.75 66.09 103.48 66 103.264 65.82C103.048 65.64 102.94 65.376 102.94 65.028V58.89H102.04C101.368 58.89 101.032 58.608 101.032 58.044C101.032 57.48 101.368 57.198 102.04 57.198H102.94V57.072C102.94 55.944 103.234 55.062 103.822 54.426C104.422 53.778 105.262 53.412 106.342 53.328L106.81 53.292C107.29 53.256 107.626 53.31 107.818 53.454C108.022 53.586 108.124 53.796 108.124 54.084C108.124 54.6 107.83 54.888 107.242 54.948L106.774 54.984ZM112.705 66.144C111.805 66.144 111.013 65.958 110.329 65.586C109.657 65.214 109.135 64.68 108.763 63.984C108.391 63.288 108.205 62.478 108.205 61.554C108.205 60.63 108.391 59.826 108.763 59.142C109.135 58.446 109.657 57.912 110.329 57.54C111.013 57.168 111.805 56.982 112.705 56.982C113.605 56.982 114.391 57.168 115.063 57.54C115.747 57.912 116.269 58.446 116.629 59.142C117.001 59.826 117.187 60.63 117.187 61.554C117.187 62.478 117.001 63.288 116.629 63.984C116.269 64.68 115.747 65.214 115.063 65.586C114.391 65.958 113.605 66.144 112.705 66.144ZM112.687 64.398C113.419 64.398 113.977 64.158 114.361 63.678C114.745 63.198 114.937 62.49 114.937 61.554C114.937 60.63 114.745 59.928 114.361 59.448C113.977 58.956 113.425 58.71 112.705 58.71C111.985 58.71 111.427 58.956 111.031 59.448C110.647 59.928 110.455 60.63 110.455 61.554C110.455 62.49 110.647 63.198 111.031 63.678C111.415 64.158 111.967 64.398 112.687 64.398ZM123.959 57.018C124.271 56.994 124.517 57.06 124.697 57.216C124.877 57.372 124.967 57.606 124.967 57.918C124.967 58.242 124.889 58.482 124.733 58.638C124.577 58.794 124.295 58.896 123.887 58.944L123.347 58.998C122.639 59.07 122.117 59.31 121.781 59.718C121.457 60.126 121.295 60.636 121.295 61.248V65.028C121.295 65.376 121.187 65.646 120.971 65.838C120.755 66.018 120.485 66.108 120.161 66.108C119.837 66.108 119.567 66.018 119.351 65.838C119.147 65.646 119.045 65.376 119.045 65.028V58.062C119.045 57.726 119.147 57.468 119.351 57.288C119.567 57.108 119.831 57.018 120.143 57.018C120.455 57.018 120.707 57.108 120.899 57.288C121.091 57.456 121.187 57.702 121.187 58.026V58.746C121.415 58.218 121.751 57.81 122.195 57.522C122.651 57.234 123.155 57.072 123.707 57.036L123.959 57.018ZM136.96 57.666C137.056 57.45 137.182 57.294 137.338 57.198C137.506 57.09 137.686 57.036 137.878 57.036C138.154 57.036 138.4 57.132 138.616 57.324C138.844 57.504 138.958 57.732 138.958 58.008C138.958 58.14 138.922 58.278 138.85 58.422L133.936 68.718C133.732 69.126 133.414 69.33 132.982 69.33C132.706 69.33 132.46 69.24 132.244 69.06C132.04 68.892 131.938 68.676 131.938 68.412C131.938 68.28 131.974 68.13 132.046 67.962L133.27 65.388L129.922 58.422C129.862 58.302 129.832 58.164 129.832 58.008C129.832 57.732 129.946 57.498 130.174 57.306C130.414 57.114 130.684 57.018 130.984 57.018C131.188 57.018 131.374 57.072 131.542 57.18C131.71 57.276 131.842 57.432 131.938 57.648L134.458 63.21L136.96 57.666ZM144.17 66.144C143.27 66.144 142.478 65.958 141.794 65.586C141.122 65.214 140.6 64.68 140.228 63.984C139.856 63.288 139.67 62.478 139.67 61.554C139.67 60.63 139.856 59.826 140.228 59.142C140.6 58.446 141.122 57.912 141.794 57.54C142.478 57.168 143.27 56.982 144.17 56.982C145.07 56.982 145.856 57.168 146.528 57.54C147.212 57.912 147.734 58.446 148.094 59.142C148.466 59.826 148.652 60.63 148.652 61.554C148.652 62.478 148.466 63.288 148.094 63.984C147.734 64.68 147.212 65.214 146.528 65.586C145.856 65.958 145.07 66.144 144.17 66.144ZM144.152 64.398C144.884 64.398 145.442 64.158 145.826 63.678C146.21 63.198 146.402 62.49 146.402 61.554C146.402 60.63 146.21 59.928 145.826 59.448C145.442 58.956 144.89 58.71 144.17 58.71C143.45 58.71 142.892 58.956 142.496 59.448C142.112 59.928 141.92 60.63 141.92 61.554C141.92 62.49 142.112 63.198 142.496 63.678C142.88 64.158 143.432 64.398 144.152 64.398ZM157.458 57.018C157.806 57.018 158.082 57.114 158.286 57.306C158.49 57.498 158.592 57.756 158.592 58.08V65.064C158.592 65.376 158.484 65.628 158.268 65.82C158.064 66.012 157.794 66.108 157.458 66.108C157.134 66.108 156.876 66.018 156.684 65.838C156.492 65.658 156.396 65.412 156.396 65.1V64.65C156.12 65.13 155.748 65.502 155.28 65.766C154.812 66.018 154.284 66.144 153.696 66.144C151.536 66.144 150.456 64.932 150.456 62.508V58.08C150.456 57.756 150.558 57.498 150.762 57.306C150.966 57.114 151.236 57.018 151.572 57.018C151.92 57.018 152.196 57.114 152.4 57.306C152.604 57.498 152.706 57.756 152.706 58.08V62.526C152.706 63.15 152.832 63.612 153.084 63.912C153.336 64.212 153.732 64.362 154.272 64.362C154.896 64.362 155.394 64.158 155.766 63.75C156.15 63.33 156.342 62.778 156.342 62.094V58.08C156.342 57.756 156.444 57.498 156.648 57.306C156.852 57.114 157.122 57.018 157.458 57.018ZM165.848 57.018C166.16 56.994 166.406 57.06 166.586 57.216C166.766 57.372 166.856 57.606 166.856 57.918C166.856 58.242 166.778 58.482 166.622 58.638C166.466 58.794 166.184 58.896 165.776 58.944L165.236 58.998C164.528 59.07 164.006 59.31 163.67 59.718C163.346 60.126 163.184 60.636 163.184 61.248V65.028C163.184 65.376 163.076 65.646 162.86 65.838C162.644 66.018 162.374 66.108 162.05 66.108C161.726 66.108 161.456 66.018 161.24 65.838C161.036 65.646 160.934 65.376 160.934 65.028V58.062C160.934 57.726 161.036 57.468 161.24 57.288C161.456 57.108 161.72 57.018 162.032 57.018C162.344 57.018 162.596 57.108 162.788 57.288C162.98 57.456 163.076 57.702 163.076 58.026V58.746C163.304 58.218 163.64 57.81 164.084 57.522C164.54 57.234 165.044 57.072 165.596 57.036L165.848 57.018ZM177.157 54.984C176.605 55.02 176.203 55.188 175.951 55.488C175.699 55.788 175.573 56.22 175.573 56.784V57.198H177.103C177.775 57.198 178.111 57.48 178.111 58.044C178.111 58.608 177.775 58.89 177.103 58.89H175.573V65.028C175.573 65.376 175.465 65.64 175.249 65.82C175.045 66 174.781 66.09 174.457 66.09C174.133 66.09 173.863 66 173.647 65.82C173.431 65.64 173.323 65.376 173.323 65.028V58.89H172.423C171.751 58.89 171.415 58.608 171.415 58.044C171.415 57.48 171.751 57.198 172.423 57.198H173.323V57.072C173.323 55.944 173.617 55.062 174.205 54.426C174.805 53.778 175.645 53.412 176.725 53.328L177.193 53.292C177.673 53.256 178.009 53.31 178.201 53.454C178.405 53.586 178.507 53.796 178.507 54.084C178.507 54.6 178.213 54.888 177.625 54.948L177.157 54.984ZM186.04 63.588C186.244 63.588 186.406 63.666 186.526 63.822C186.658 63.978 186.724 64.188 186.724 64.452C186.724 64.824 186.502 65.136 186.058 65.388C185.65 65.616 185.188 65.802 184.672 65.946C184.156 66.078 183.664 66.144 183.196 66.144C181.78 66.144 180.658 65.736 179.83 64.92C179.002 64.104 178.588 62.988 178.588 61.572C178.588 60.672 178.768 59.874 179.128 59.178C179.488 58.482 179.992 57.942 180.64 57.558C181.3 57.174 182.044 56.982 182.872 56.982C183.664 56.982 184.354 57.156 184.942 57.504C185.53 57.852 185.986 58.344 186.31 58.98C186.634 59.616 186.796 60.366 186.796 61.23C186.796 61.746 186.568 62.004 186.112 62.004H180.802C180.874 62.832 181.108 63.444 181.504 63.84C181.9 64.224 182.476 64.416 183.232 64.416C183.616 64.416 183.952 64.368 184.24 64.272C184.54 64.176 184.876 64.044 185.248 63.876C185.608 63.684 185.872 63.588 186.04 63.588ZM182.926 58.566C182.314 58.566 181.822 58.758 181.45 59.142C181.09 59.526 180.874 60.078 180.802 60.798H184.87C184.846 60.066 184.666 59.514 184.33 59.142C183.994 58.758 183.526 58.566 182.926 58.566ZM195.603 63.588C195.807 63.588 195.969 63.666 196.089 63.822C196.221 63.978 196.287 64.188 196.287 64.452C196.287 64.824 196.065 65.136 195.621 65.388C195.213 65.616 194.751 65.802 194.235 65.946C193.719 66.078 193.227 66.144 192.759 66.144C191.343 66.144 190.221 65.736 189.393 64.92C188.565 64.104 188.151 62.988 188.151 61.572C188.151 60.672 188.331 59.874 188.691 59.178C189.051 58.482 189.555 57.942 190.203 57.558C190.863 57.174 191.607 56.982 192.435 56.982C193.227 56.982 193.917 57.156 194.505 57.504C195.093 57.852 195.549 58.344 195.873 58.98C196.197 59.616 196.359 60.366 196.359 61.23C196.359 61.746 196.131 62.004 195.675 62.004H190.365C190.437 62.832 190.671 63.444 191.067 63.84C191.463 64.224 192.039 64.416 192.795 64.416C193.179 64.416 193.515 64.368 193.803 64.272C194.103 64.176 194.439 64.044 194.811 63.876C195.171 63.684 195.435 63.588 195.603 63.588ZM192.489 58.566C191.877 58.566 191.385 58.758 191.013 59.142C190.653 59.526 190.437 60.078 190.365 60.798H194.433C194.409 60.066 194.229 59.514 193.893 59.142C193.557 58.758 193.089 58.566 192.489 58.566ZM205.543 53.22C205.879 53.22 206.155 53.316 206.371 53.508C206.587 53.7 206.695 53.952 206.695 54.264V65.028C206.695 65.352 206.593 65.61 206.389 65.802C206.185 65.994 205.915 66.09 205.579 66.09C205.243 66.09 204.973 65.994 204.769 65.802C204.565 65.61 204.463 65.352 204.463 65.028V64.578C204.199 65.07 203.815 65.454 203.311 65.73C202.819 66.006 202.255 66.144 201.619 66.144C200.863 66.144 200.185 65.952 199.585 65.568C198.997 65.184 198.535 64.644 198.199 63.948C197.875 63.24 197.713 62.43 197.713 61.518C197.713 60.606 197.875 59.808 198.199 59.124C198.535 58.44 198.997 57.912 199.585 57.54C200.173 57.168 200.851 56.982 201.619 56.982C202.255 56.982 202.819 57.114 203.311 57.378C203.803 57.642 204.181 58.014 204.445 58.494V54.228C204.445 53.928 204.541 53.688 204.733 53.508C204.937 53.316 205.207 53.22 205.543 53.22ZM202.213 64.398C202.933 64.398 203.485 64.152 203.869 63.66C204.265 63.168 204.463 62.466 204.463 61.554C204.463 60.642 204.265 59.946 203.869 59.466C203.485 58.974 202.939 58.728 202.231 58.728C201.511 58.728 200.953 58.968 200.557 59.448C200.161 59.928 199.963 60.618 199.963 61.518C199.963 62.43 200.161 63.138 200.557 63.642C200.953 64.146 201.505 64.398 202.213 64.398ZM214.068 56.982C214.836 56.982 215.514 57.168 216.102 57.54C216.69 57.912 217.146 58.44 217.47 59.124C217.806 59.808 217.974 60.606 217.974 61.518C217.974 62.43 217.806 63.24 217.47 63.948C217.146 64.644 216.684 65.184 216.084 65.568C215.496 65.952 214.824 66.144 214.068 66.144C213.432 66.144 212.862 66.006 212.358 65.73C211.866 65.454 211.488 65.07 211.224 64.578V65.028C211.224 65.352 211.122 65.61 210.918 65.802C210.714 65.994 210.444 66.09 210.108 66.09C209.772 66.09 209.502 65.994 209.298 65.802C209.106 65.61 209.01 65.352 209.01 65.028V54.264C209.01 53.952 209.112 53.7 209.316 53.508C209.532 53.316 209.808 53.22 210.144 53.22C210.48 53.22 210.75 53.31 210.954 53.49C211.158 53.67 211.26 53.916 211.26 54.228V58.476C211.524 57.996 211.902 57.63 212.394 57.378C212.886 57.114 213.444 56.982 214.068 56.982ZM213.474 64.398C214.182 64.398 214.734 64.146 215.13 63.642C215.526 63.138 215.724 62.43 215.724 61.518C215.724 60.618 215.526 59.928 215.13 59.448C214.746 58.968 214.194 58.728 213.474 58.728C212.754 58.728 212.196 58.974 211.8 59.466C211.416 59.946 211.224 60.642 211.224 61.554C211.224 62.466 211.416 63.168 211.8 63.66C212.196 64.152 212.754 64.398 213.474 64.398ZM223.636 56.982C224.86 56.982 225.766 57.288 226.354 57.9C226.954 58.5 227.254 59.418 227.254 60.654V65.046C227.254 65.37 227.158 65.628 226.966 65.82C226.774 66 226.51 66.09 226.174 66.09C225.862 66.09 225.604 65.994 225.4 65.802C225.208 65.61 225.112 65.358 225.112 65.046V64.65C224.908 65.118 224.584 65.484 224.14 65.748C223.708 66.012 223.204 66.144 222.628 66.144C222.04 66.144 221.506 66.024 221.026 65.784C220.546 65.544 220.168 65.214 219.892 64.794C219.616 64.374 219.478 63.906 219.478 63.39C219.478 62.742 219.64 62.232 219.964 61.86C220.3 61.488 220.84 61.218 221.584 61.05C222.328 60.882 223.354 60.798 224.662 60.798H225.112V60.384C225.112 59.796 224.986 59.37 224.734 59.106C224.482 58.83 224.074 58.692 223.51 58.692C223.162 58.692 222.808 58.746 222.448 58.854C222.088 58.95 221.662 59.094 221.17 59.286C220.858 59.442 220.63 59.52 220.486 59.52C220.27 59.52 220.09 59.442 219.946 59.286C219.814 59.13 219.748 58.926 219.748 58.674C219.748 58.47 219.796 58.296 219.892 58.152C220 57.996 220.174 57.852 220.414 57.72C220.834 57.492 221.332 57.312 221.908 57.18C222.496 57.048 223.072 56.982 223.636 56.982ZM223.078 64.524C223.678 64.524 224.164 64.326 224.536 63.93C224.92 63.522 225.112 63 225.112 62.364V61.986H224.788C223.984 61.986 223.36 62.022 222.916 62.094C222.472 62.166 222.154 62.292 221.962 62.472C221.77 62.652 221.674 62.898 221.674 63.21C221.674 63.594 221.806 63.912 222.07 64.164C222.346 64.404 222.682 64.524 223.078 64.524ZM233.447 66.144C232.571 66.144 231.797 65.958 231.125 65.586C230.465 65.214 229.955 64.686 229.595 64.002C229.235 63.318 229.055 62.52 229.055 61.608C229.055 60.696 229.241 59.892 229.613 59.196C229.997 58.488 230.531 57.942 231.215 57.558C231.899 57.174 232.685 56.982 233.573 56.982C234.041 56.982 234.509 57.048 234.977 57.18C235.457 57.312 235.877 57.492 236.237 57.72C236.621 57.972 236.813 58.29 236.813 58.674C236.813 58.938 236.747 59.154 236.615 59.322C236.495 59.478 236.333 59.556 236.129 59.556C235.997 59.556 235.859 59.526 235.715 59.466C235.571 59.406 235.427 59.334 235.283 59.25C235.019 59.094 234.767 58.974 234.527 58.89C234.287 58.794 234.011 58.746 233.699 58.746C232.955 58.746 232.379 58.992 231.971 59.484C231.575 59.964 231.377 60.66 231.377 61.572C231.377 62.472 231.575 63.168 231.971 63.66C232.379 64.14 232.955 64.38 233.699 64.38C233.999 64.38 234.263 64.338 234.491 64.254C234.731 64.158 234.995 64.032 235.283 63.876C235.463 63.768 235.619 63.69 235.751 63.642C235.883 63.582 236.015 63.552 236.147 63.552C236.339 63.552 236.501 63.636 236.633 63.804C236.765 63.972 236.831 64.182 236.831 64.434C236.831 64.638 236.783 64.818 236.687 64.974C236.603 65.118 236.459 65.25 236.255 65.37C235.883 65.61 235.451 65.802 234.959 65.946C234.467 66.078 233.963 66.144 233.447 66.144ZM246.16 64.254C246.4 64.482 246.52 64.74 246.52 65.028C246.52 65.304 246.418 65.55 246.214 65.766C246.022 65.982 245.794 66.09 245.53 66.09C245.266 66.09 245.02 65.982 244.792 65.766L240.58 61.95V65.028C240.58 65.376 240.472 65.64 240.256 65.82C240.04 66 239.77 66.09 239.446 66.09C239.122 66.09 238.852 66 238.636 65.82C238.432 65.64 238.33 65.376 238.33 65.028V54.282C238.33 53.934 238.432 53.67 238.636 53.49C238.852 53.31 239.122 53.22 239.446 53.22C239.77 53.22 240.04 53.31 240.256 53.49C240.472 53.67 240.58 53.934 240.58 54.282V61.05L244.432 57.36C244.648 57.144 244.894 57.036 245.17 57.036C245.446 57.036 245.686 57.138 245.89 57.342C246.094 57.546 246.196 57.786 246.196 58.062C246.196 58.338 246.082 58.59 245.854 58.818L243.028 61.446L246.16 64.254Z" fill="white"/>
<path d="M142 0.679993C131.344 0.679993 122.68 9.34417 122.68 20C122.68 30.6558 131.344 39.32 142 39.32C152.656 39.32 161.32 30.6558 161.32 20C161.32 9.34417 152.656 0.679993 142 0.679993ZM142 3.19999C151.293 3.19999 158.8 10.7075 158.8 20C158.8 29.2925 151.293 36.8 142 36.8C132.708 36.8 125.2 29.2925 125.2 20C125.2 10.7075 132.708 3.19999 142 3.19999ZM134.86 12.02C133.469 12.02 132.34 13.1487 132.34 14.54C132.34 15.9312 133.469 17.06 134.86 17.06C136.251 17.06 137.38 15.9312 137.38 14.54C137.38 13.1487 136.251 12.02 134.86 12.02ZM149.14 12.02C147.749 12.02 146.62 13.1487 146.62 14.54C146.62 15.9312 147.749 17.06 149.14 17.06C150.531 17.06 151.66 15.9312 151.66 14.54C151.66 13.1487 150.531 12.02 149.14 12.02ZM132.629 23.78C131.517 23.8308 131.203 24.9744 131.71 25.7356C133.963 29.1054 137.737 31.3401 142 31.3401C146.264 31.3401 150.038 29.1055 152.29 25.7356C152.658 25.186 152.499 24.3575 151.949 23.99C151.4 23.6225 150.558 23.7816 150.19 24.3312C148.371 27.0531 145.388 28.8202 142 28.8202C138.613 28.8202 135.63 27.0533 133.81 24.3312C133.469 23.9309 133.034 23.757 132.629 23.78V23.78Z" fill="white"/>
<rect x="0.5" y="108.5" width="289" height="49" rx="5.5" stroke="white"/>
<path d="M131.069 139.144C129.981 139.144 129.026 138.909 128.205 138.44C127.394 137.971 126.77 137.299 126.333 136.424C125.895 135.549 125.677 134.525 125.677 133.352C125.677 132.179 125.895 131.16 126.333 130.296C126.77 129.421 127.394 128.749 128.205 128.28C129.026 127.811 129.981 127.576 131.069 127.576C131.773 127.576 132.434 127.683 133.053 127.896C133.671 128.099 134.221 128.397 134.701 128.792C134.839 128.899 134.935 129.011 134.989 129.128C135.042 129.245 135.069 129.389 135.069 129.56C135.069 129.795 135.005 129.992 134.877 130.152C134.749 130.312 134.594 130.392 134.413 130.392C134.199 130.392 133.981 130.317 133.757 130.168C133.298 129.827 132.871 129.592 132.477 129.464C132.082 129.325 131.645 129.256 131.165 129.256C130.055 129.256 129.213 129.603 128.637 130.296C128.071 130.989 127.789 132.008 127.789 133.352C127.789 134.707 128.071 135.731 128.637 136.424C129.213 137.117 130.055 137.464 131.165 137.464C131.623 137.464 132.045 137.395 132.429 137.256C132.823 137.117 133.266 136.883 133.757 136.552C133.863 136.488 133.97 136.435 134.077 136.392C134.183 136.349 134.295 136.328 134.413 136.328C134.594 136.328 134.749 136.408 134.877 136.568C135.005 136.728 135.069 136.925 135.069 137.16C135.069 137.32 135.042 137.464 134.989 137.592C134.935 137.709 134.839 137.821 134.701 137.928C134.221 138.323 133.671 138.627 133.053 138.84C132.434 139.043 131.773 139.144 131.069 139.144ZM137.688 139.096C137.4 139.096 137.16 139.016 136.968 138.856C136.787 138.685 136.696 138.445 136.696 138.136V128.584C136.696 128.275 136.787 128.04 136.968 127.88C137.16 127.72 137.4 127.64 137.688 127.64C137.976 127.64 138.216 127.72 138.408 127.88C138.6 128.04 138.696 128.275 138.696 128.584V138.136C138.696 138.445 138.6 138.685 138.408 138.856C138.216 139.016 137.976 139.096 137.688 139.096ZM144.327 139.128C143.527 139.128 142.823 138.963 142.215 138.632C141.617 138.301 141.153 137.827 140.823 137.208C140.492 136.589 140.327 135.869 140.327 135.048C140.327 134.227 140.492 133.512 140.823 132.904C141.153 132.285 141.617 131.811 142.215 131.48C142.823 131.149 143.527 130.984 144.327 130.984C145.127 130.984 145.825 131.149 146.423 131.48C147.031 131.811 147.495 132.285 147.815 132.904C148.145 133.512 148.311 134.227 148.311 135.048C148.311 135.869 148.145 136.589 147.815 137.208C147.495 137.827 147.031 138.301 146.423 138.632C145.825 138.963 145.127 139.128 144.327 139.128ZM144.311 137.576C144.961 137.576 145.457 137.363 145.799 136.936C146.14 136.509 146.311 135.88 146.311 135.048C146.311 134.227 146.14 133.603 145.799 133.176C145.457 132.739 144.967 132.52 144.327 132.52C143.687 132.52 143.191 132.739 142.839 133.176C142.497 133.603 142.327 134.227 142.327 135.048C142.327 135.88 142.497 136.509 142.839 136.936C143.18 137.363 143.671 137.576 144.311 137.576ZM152.794 139.128C151.631 139.128 150.693 138.899 149.978 138.44C149.637 138.237 149.466 137.949 149.466 137.576C149.466 137.363 149.525 137.192 149.642 137.064C149.759 136.925 149.903 136.856 150.074 136.856C150.255 136.856 150.506 136.941 150.826 137.112C151.167 137.272 151.477 137.395 151.754 137.48C152.042 137.565 152.405 137.608 152.842 137.608C153.29 137.608 153.637 137.533 153.882 137.384C154.138 137.235 154.266 137.027 154.266 136.76C154.266 136.579 154.213 136.435 154.106 136.328C154.01 136.221 153.829 136.125 153.562 136.04C153.306 135.944 152.911 135.837 152.378 135.72C151.429 135.528 150.746 135.256 150.33 134.904C149.925 134.552 149.722 134.067 149.722 133.448C149.722 132.979 149.861 132.557 150.138 132.184C150.415 131.8 150.794 131.507 151.274 131.304C151.765 131.091 152.319 130.984 152.938 130.984C153.386 130.984 153.818 131.043 154.234 131.16C154.65 131.267 155.023 131.427 155.354 131.64C155.695 131.853 155.866 132.136 155.866 132.488C155.866 132.701 155.807 132.883 155.69 133.032C155.573 133.171 155.429 133.24 155.258 133.24C155.141 133.24 155.023 133.219 154.906 133.176C154.799 133.123 154.661 133.048 154.49 132.952C154.181 132.792 153.914 132.675 153.69 132.6C153.466 132.515 153.189 132.472 152.858 132.472C152.463 132.472 152.149 132.552 151.914 132.712C151.69 132.872 151.578 133.091 151.578 133.368C151.578 133.635 151.695 133.837 151.93 133.976C152.165 134.115 152.618 134.253 153.29 134.392C154.005 134.541 154.565 134.712 154.97 134.904C155.375 135.096 155.663 135.336 155.834 135.624C156.015 135.912 156.106 136.28 156.106 136.728C156.106 137.453 155.802 138.035 155.194 138.472C154.597 138.909 153.797 139.128 152.794 139.128ZM163.92 136.856C164.101 136.856 164.245 136.925 164.352 137.064C164.469 137.203 164.528 137.389 164.528 137.624C164.528 137.955 164.33 138.232 163.936 138.456C163.573 138.659 163.162 138.824 162.704 138.952C162.245 139.069 161.808 139.128 161.391 139.128C160.133 139.128 159.136 138.765 158.4 138.04C157.664 137.315 157.296 136.323 157.296 135.064C157.296 134.264 157.456 133.555 157.776 132.936C158.096 132.317 158.544 131.837 159.12 131.496C159.706 131.155 160.368 130.984 161.104 130.984C161.808 130.984 162.421 131.139 162.944 131.448C163.466 131.757 163.872 132.195 164.16 132.76C164.448 133.325 164.592 133.992 164.592 134.76C164.592 135.219 164.389 135.448 163.984 135.448H159.264C159.328 136.184 159.536 136.728 159.888 137.08C160.24 137.421 160.752 137.592 161.424 137.592C161.765 137.592 162.064 137.549 162.32 137.464C162.586 137.379 162.885 137.261 163.216 137.112C163.536 136.941 163.77 136.856 163.92 136.856ZM161.152 132.392C160.608 132.392 160.17 132.563 159.84 132.904C159.52 133.245 159.328 133.736 159.264 134.376H162.88C162.858 133.725 162.698 133.235 162.4 132.904C162.101 132.563 161.685 132.392 161.152 132.392Z" fill="white"/>
</svg>
